<?xml version="1.0" standalone="no"?>
<!DOCTYPE svg PUBLIC "-//W3C//DTD SVG 20010904//EN"
 "http://www.w3.org/TR/2001/REC-SVG-20010904/DTD/svg10.dtd">
<svg version="1.0" xmlns="http://www.w3.org/2000/svg"
 width="32.000000pt" height="32.000000pt" viewBox="0 0 32.000000 32.000000"
 preserveAspectRatio="xMidYMid meet">

<g transform="translate(0.000000,32.000000) scale(0.100000,-0.100000)"
fill="#000000" stroke="none">
<path d="M221 305 c-18 -8 -45 -15 -60 -15 -57 0 -131 -73 -131 -129 0 -13 -8
-45 -17 -70 -25 -72 -1 -106 58 -84 20 8 39 8 63 1 108 -33 211 70 178 178 -7
24 -7 43 1 64 22 58 -23 85 -92 55z m76 -21 c28 -73 -233 -316 -272 -253 -4 5
-4 22 0 37 l7 27 17 -24 c17 -22 19 -23 49 -7 41 21 137 117 158 158 16 30 15
32 -6 48 -18 13 -20 19 -9 23 27 10 50 7 56 -9z m-63 -27 c16 -12 14 -16 -19
-60 -20 -26 -59 -66 -88 -88 -47 -38 -52 -39 -64 -23 -19 26 -16 44 7 44 27 0
44 34 30 60 -6 11 -15 20 -20 20 -20 0 -9 19 23 39 36 23 104 28 131 8z m-149
-87 c0 -8 -8 -16 -17 -18 -13 -2 -18 3 -18 18 0 15 5 20 18 18 9 -2 17 -10 17
-18z m213 -31 c-2 -28 -7 -33 -24 -31 -31 4 -51 -24 -36 -49 11 -17 9 -21 -13
-29 -30 -11 -78 -13 -88 -4 -3 4 15 24 41 44 26 21 61 56 77 78 33 45 48 42
43 -9z m-18 -58 c0 -12 -20 -25 -27 -18 -7 7 6 27 18 27 5 0 9 -4 9 -9z"/>
<path d="M140 231 c-14 -28 13 -55 41 -41 22 12 25 30 7 48 -18 18 -36 15 -48
-7z m40 -9 c0 -13 -12 -22 -22 -16 -10 6 -1 24 13 24 5 0 9 -4 9 -8z"/>
<path d="M95 220 c3 -5 8 -10 11 -10 2 0 4 5 4 10 0 6 -5 10 -11 10 -5 0 -7
-4 -4 -10z"/>
<path d="M140 160 c0 -5 5 -10 11 -10 5 0 7 5 4 10 -3 6 -8 10 -11 10 -2 0 -4
-4 -4 -10z"/>
<path d="M85 110 c3 -5 8 -10 11 -10 2 0 4 5 4 10 0 6 -5 10 -11 10 -5 0 -7
-4 -4 -10z"/>
<path d="M270 129 c0 -5 5 -7 10 -4 6 3 10 8 10 11 0 2 -4 4 -10 4 -5 0 -10
-5 -10 -11z"/>
<path d="M190 50 c0 -5 5 -10 10 -10 6 0 10 5 10 10 0 6 -4 10 -10 10 -5 0
-10 -4 -10 -10z"/>
</g>
</svg>
